<?xml version="1.0" encoding="UTF-8" standalone="no"?>
<svg
   id="Layer_1"
   viewBox="0 0 133.78 133.78"
   version="1.1"
   sodipodi:docname="logo_small.svg"
   width="133.78"
   height="133.78"
   inkscape:version="1.2.2 (732a01da63, 2022-12-09, custom)"
   xmlns:inkscape="http://www.inkscape.org/namespaces/inkscape"
   xmlns:sodipodi="http://sodipodi.sourceforge.net/DTD/sodipodi-0.dtd"
   xmlns="http://www.w3.org/2000/svg"
   xmlns:svg="http://www.w3.org/2000/svg">
  <sodipodi:namedview
     id="namedview35"
     pagecolor="#ffffff"
     bordercolor="#000000"
     borderopacity="0.25"
     inkscape:showpageshadow="2"
     inkscape:pageopacity="0.0"
     inkscape:pagecheckerboard="0"
     inkscape:deskcolor="#d1d1d1"
     showgrid="false"
     inkscape:zoom="1.3991818"
     inkscape:cx="63.608601"
     inkscape:cy="68.968876"
     inkscape:window-width="2486"
     inkscape:window-height="1536"
     inkscape:window-x="74"
     inkscape:window-y="27"
     inkscape:window-maximized="1"
     inkscape:current-layer="Layer_1" />
  <defs
     id="defs20">
    <style
       id="style18">.cls-1{fill:#231f20;}.cls-2{fill:#8dc63f;stroke:#000;stroke-linecap:round;stroke-linejoin:round;stroke-width:4px;}</style>
  </defs>
  <path
     class="cls-2"
     d="m 51.48,115.47 c -0.52,-0.15 -0.87,-0.26 0,0 z"
     id="path22" />
  <path
     class="cls-2"
     d="m 52.49,115.77 c 0,0 -0.27,-0.08 -0.59,-0.17 0.17,0.05 0.36,0.11 0.59,0.17 z"
     id="path24" />
  <path
     class="cls-2"
     d="m 51.9,115.6 c -0.16,-0.05 -0.3,-0.09 -0.42,-0.12 0.14,0.04 0.28,0.08 0.42,0.12 z"
     id="path26" />
  <path
     class="cls-2"
     d="M 131.78,81.29 V 52.49 H 115.77 L 111.64,42.51 122.96,31.19 102.59,10.82 91.27,22.14 81.29,18.01 V 2 H 52.49 V 18.01 L 42.51,22.14 31.19,10.82 10.82,31.19 22.14,42.51 18.01,52.49 H 2 v 28.8 h 16.01 l 4.13,9.98 -11.32,11.32 20.37,20.37 11.32,-11.32 9.98,4.13 v 16.01 h 28.8 v -16.01 l 9.98,-4.13 11.32,11.32 20.37,-20.37 -11.32,-11.32 4.13,-9.98 z m -64.89,18.83 c -18.35,0 -33.23,-14.88 -33.23,-33.23 0,-18.35 14.88,-33.23 33.23,-33.23 18.35,0 33.23,14.88 33.23,33.23 0,18.35 -14.88,33.23 -33.23,33.23 z"
     id="path28" />
  <path
     class="cls-1"
     d="m 44.31,49.16 h 17.65 c 3.84,0 6.72,0.91 8.64,2.74 1.92,1.83 2.87,4.43 2.87,7.8 0,3.37 -1.04,6.18 -3.13,8.13 -2.09,1.95 -5.27,2.93 -9.55,2.93 H 54.98 V 83.51 H 44.32 V 49.15 Z m 10.66,14.65 h 2.6 c 2.05,0 3.48,-0.36 4.31,-1.07 0.83,-0.71 1.24,-1.62 1.24,-2.73 0,-1.11 -0.36,-1.99 -1.08,-2.74 -0.72,-0.75 -2.07,-1.12 -4.05,-1.12 h -3.02 z"
     id="path30" />
  <path
     class="cls-1"
     d="m 78.74,49.16 h 9.54 v 6.49 h -9.54 z m 0,9.47 h 9.54 v 24.89 h -9.54 z"
     id="path32" />
</svg>
