<?xml version="1.0" encoding="UTF-8" standalone="no"?>
<svg
   id="Layer_1"
   viewBox="0 0 507.65101 190.51878"
   version="1.1"
   sodipodi:docname="logo_url.svg"
   width="507.651"
   height="190.51878"
   inkscape:version="1.2.2 (732a01da63, 2022-12-09, custom)"
   xmlns:inkscape="http://www.inkscape.org/namespaces/inkscape"
   xmlns:sodipodi="http://sodipodi.sourceforge.net/DTD/sodipodi-0.dtd"
   xmlns="http://www.w3.org/2000/svg"
   xmlns:svg="http://www.w3.org/2000/svg">
  <sodipodi:namedview
     id="namedview269"
     pagecolor="#ffffff"
     bordercolor="#000000"
     borderopacity="0.25"
     inkscape:showpageshadow="2"
     inkscape:pageopacity="0.0"
     inkscape:pagecheckerboard="0"
     inkscape:deskcolor="#d1d1d1"
     showgrid="false"
     inkscape:zoom="3.5325734"
     inkscape:cx="253.92253"
     inkscape:cy="94.690176"
     inkscape:window-width="2486"
     inkscape:window-height="1536"
     inkscape:window-x="74"
     inkscape:window-y="27"
     inkscape:window-maximized="1"
     inkscape:current-layer="Layer_1" />
  <defs
     id="defs210">
    <style
       id="style208">.cls-1{fill:#231f20;}.cls-2{fill:none;stroke:#231f20;stroke-dasharray:0 0 30.28 2.02;stroke-miterlimit:10;stroke-width:12px;}.cls-3{fill:#8dc63f;stroke:#000;stroke-linecap:round;stroke-linejoin:round;stroke-width:4px;}</style>
  </defs>
  <path
     class="cls-2"
     d="m 412.40001,6.0187865 c 49.29,0 89.25,39.9599995 89.25,89.2499995 0,49.290004 -39.96,89.250004 -89.25,89.250004 H 95.250008 c -49.29,0 -89.2499999,-39.96 -89.2499999,-89.250004 0,-49.29 39.9599999,-89.2499995 89.2499999,-89.2499995 z"
     id="path212" />
  <path
     class="cls-1"
     d="m 178.86001,67.248786 h 23.34 c 5.08,0 8.89,1.21 11.42,3.63 2.53,2.42 3.8,5.86 3.8,10.32 0,4.46 -1.38,8.17 -4.14,10.76 -2.76,2.58 -6.97,3.87 -12.63,3.87 h -7.69 v 16.860004 h -14.1 z m 14.1,19.37 h 3.44 c 2.71,0 4.61,-0.47 5.7,-1.41 1.09,-0.94 1.64,-2.14 1.64,-3.61 0,-1.47 -0.48,-2.63 -1.43,-3.63 -0.95,-0.99 -2.74,-1.49 -5.36,-1.49 h -4 v 10.14 z"
     id="path214" />
  <path
     class="cls-1"
     d="m 224.39001,67.248786 h 12.62 v 8.59 h -12.62 z m 0,12.52 h 12.62 v 32.920004 h -12.62 z"
     id="path216" />
  <path
     class="cls-1"
     d="M 267.26001,112.68879 V 67.248786 h 23.4 c 4.34,0 7.66,0.37 9.95,1.12 2.29,0.74 4.14,2.12 5.55,4.14 1.41,2.02 2.11,4.47 2.11,7.36 0,2.52 -0.54,4.7 -1.61,6.52 -1.08,1.83 -2.55,3.31 -4.43,4.45 -1.2,0.72 -2.84,1.32 -4.93,1.8 1.67,0.56 2.89,1.12 3.66,1.68 0.52,0.37 1.26,1.17 2.25,2.39 0.98,1.22 1.64,2.16 1.97,2.82 l 6.8,13.170004 h -15.87 l -7.5,-13.890004 c -0.95,-1.8 -1.8,-2.96 -2.54,-3.5 -1.01,-0.7 -2.16,-1.05 -3.44,-1.05 h -1.24 v 18.440004 h -14.1 z m 14.1,-27.030004 h 5.92 c 0.64,0 1.88,-0.21 3.72,-0.62 0.93,-0.19 1.69,-0.66 2.28,-1.43 0.59,-0.76 0.88,-1.64 0.88,-2.63 0,-1.47 -0.46,-2.59 -1.4,-3.38 -0.93,-0.79 -2.68,-1.18 -5.24,-1.18 h -6.17 v 9.24 z"
     id="path218" />
  <path
     class="cls-1"
     d="m 312.42001,96.328786 c 0,-5.02 1.69,-9.16 5.08,-12.41 3.39,-3.25 7.97,-4.88 13.73,-4.88 6.59,0 11.57,1.91 14.94,5.73 2.71,3.08 4.06,6.87 4.06,11.38 0,5.060004 -1.68,9.210004 -5.04,12.440004 -3.36,3.23 -8,4.85 -13.93,4.85 -5.29,0 -9.57,-1.34 -12.83,-4.03 -4.01,-3.33 -6.01,-7.69 -6.01,-13.080004 z m 12.65,-0.03 c 0,2.93 0.59,5.100004 1.78,6.510004 1.19,1.41 2.68,2.11 4.48,2.11 1.8,0 3.31,-0.69 4.48,-2.08 1.17,-1.38 1.75,-3.610004 1.75,-6.660004 0,-2.85 -0.59,-4.97 -1.77,-6.37 -1.18,-1.4 -2.63,-2.09 -4.37,-2.09 -1.84,0 -3.36,0.71 -4.56,2.12 -1.2,1.42 -1.8,3.57 -1.8,6.46 z"
     id="path220" />
  <path
     class="cls-1"
     d="m 356.37001,67.248786 h 12.74 v 15.75 c 1.26,-1.32 2.69,-2.31 4.29,-2.98 1.6,-0.66 3.37,-0.99 5.32,-0.99 4.01,0 7.33,1.44 9.95,4.32 2.62,2.88 3.94,7.02 3.94,12.41 0,3.6 -0.6,6.760004 -1.8,9.500004 -1.2,2.74 -2.86,4.78 -4.98,6.14 -2.12,1.35 -4.47,2.03 -7.05,2.03 -2.21,0 -4.24,-0.48 -6.08,-1.43 -1.38,-0.74 -2.89,-2.14 -4.53,-4.18 v 4.87 h -11.81 V 67.248786 Z m 12.65,28.89 c 0,2.83 0.53,4.880004 1.6,6.150004 1.06,1.27 2.41,1.91 4.04,1.91 1.51,0 2.77,-0.62 3.8,-1.88 1.02,-1.25 1.53,-3.350004 1.53,-6.310004 0,-2.6 -0.5,-4.52 -1.5,-5.73 -1,-1.22 -2.22,-1.83 -3.64,-1.83 -1.72,0 -3.12,0.64 -4.2,1.91 -1.08,1.27 -1.63,3.2 -1.63,5.78 z"
     id="path222" />
  <path
     class="cls-1"
     d="m 397.10001,96.328786 c 0,-5.02 1.69,-9.16 5.08,-12.41 3.39,-3.25 7.97,-4.88 13.73,-4.88 6.59,0 11.57,1.91 14.94,5.73 2.71,3.08 4.06,6.87 4.06,11.38 0,5.060004 -1.68,9.210004 -5.04,12.440004 -3.36,3.23 -8,4.85 -13.93,4.85 -5.29,0 -9.57,-1.34 -12.83,-4.03 -4.01,-3.33 -6.01,-7.69 -6.01,-13.080004 z m 12.65,-0.03 c 0,2.93 0.59,5.100004 1.78,6.510004 1.19,1.41 2.68,2.11 4.48,2.11 1.8,0 3.31,-0.69 4.48,-2.08 1.17,-1.38 1.75,-3.610004 1.75,-6.660004 0,-2.85 -0.59,-4.97 -1.77,-6.37 -1.18,-1.4 -2.63,-2.09 -4.37,-2.09 -1.84,0 -3.36,0.71 -4.56,2.12 -1.2,1.42 -1.8,3.57 -1.8,6.46 z"
     id="path224" />
  <path
     class="cls-1"
     d="m 456.21001,67.248786 v 12.52 h 6.94 v 9.24 h -6.94 v 11.660004 c 0,1.4 0.13,2.33 0.4,2.78 0.41,0.7 1.14,1.05 2.17,1.05 0.93,0 2.23,-0.27 3.91,-0.8 l 0.93,8.71 c -3.12,0.68 -6.03,1.02 -8.74,1.02 -3.14,0 -5.46,-0.4 -6.94,-1.21 -1.49,-0.81 -2.59,-2.03 -3.3,-3.67 -0.71,-1.64 -1.07,-4.3 -1.07,-7.97 V 88.998786 h -4.65 v -9.24 h 4.65 v -6.04 l 12.65,-6.48 z"
     id="path226" />
  <path
     class="cls-1"
     d="m 177.23001,122.49879 h 3.03 l 2.24,9.77 h 0.57 l 2.69,-9.53 h 3.17 l 2.69,9.53 h 0.57 l 2.21,-9.77 h 3.06 l -3,12 h -4.9 l -2.21,-8.23 -2.21,8.23 h -4.9 l -3,-12 z"
     id="path228" />
  <path
     class="cls-1"
     d="m 204.65001,122.49879 h 3.03 l 2.24,9.77 h 0.57 l 2.69,-9.53 h 3.17 l 2.69,9.53 h 0.57 l 2.21,-9.77 h 3.06 l -3,12 h -4.9 l -2.21,-8.23 -2.21,8.23 h -4.9 l -3,-12 z"
     id="path230" />
  <path
     class="cls-1"
     d="m 232.08001,122.49879 h 3.03 l 2.24,9.77 h 0.57 l 2.69,-9.53 h 3.17 l 2.69,9.53 h 0.57 l 2.21,-9.77 h 3.06 l -3,12 h -4.9 l -2.21,-8.23 -2.21,8.23 h -4.9 l -3,-12 z"
     id="path232" />
  <path
     class="cls-1"
     d="m 259.85001,134.49879 v -3.46 h 3.31 v 3.46 z"
     id="path234" />
  <path
     class="cls-1"
     d="m 272.43001,139.65879 v -17.16 h 3.06 v 0.74 c 1.3,-0.67 2.52,-1.01 3.66,-1.01 1.87,0 3.24,0.48 4.11,1.45 0.87,0.97 1.3,2.59 1.3,4.87 0,2.28 -0.5,3.88 -1.49,4.81 -0.99,0.93 -2.61,1.39 -4.86,1.39 -0.77,0 -1.67,-0.07 -2.69,-0.22 v 5.11 h -3.09 z m 6.18,-15.1 c -0.89,0 -1.78,0.17 -2.66,0.5 l -0.42,0.17 v 7.08 c 0.76,0.13 1.59,0.19 2.49,0.19 1.29,0 2.17,-0.31 2.66,-0.94 0.49,-0.62 0.74,-1.69 0.74,-3.19 0,-2.54 -0.93,-3.82 -2.8,-3.82 z"
     id="path236" />
  <path
     class="cls-1"
     d="m 293.31001,120.45879 v -2.76 h 3.09 v 2.76 z m 0,14.04 v -12 h 3.09 v 12 z"
     id="path238" />
  <path
     class="cls-1"
     d="m 305.80001,134.49879 v -12 h 3.06 v 1.44 c 1.61,-0.88 3.21,-1.45 4.82,-1.7 v 2.62 c -1.62,0.27 -3.01,0.62 -4.16,1.06 l -0.62,0.22 v 8.38 h -3.09 z"
     id="path240" />
  <path
     class="cls-1"
     d="m 322.36001,123.79879 c 0.97,-1.04 2.59,-1.56 4.86,-1.56 2.27,0 3.89,0.52 4.86,1.56 0.97,1.04 1.46,2.6 1.46,4.68 0,2.08 -0.47,3.65 -1.42,4.7 -0.95,1.06 -2.58,1.58 -4.9,1.58 -2.32,0 -3.96,-0.53 -4.9,-1.58 -0.94,-1.06 -1.42,-2.62 -1.42,-4.7 0,-2.08 0.49,-3.64 1.46,-4.68 z m 2.31,7.8 c 0.43,0.64 1.28,0.96 2.55,0.96 1.27,0 2.12,-0.32 2.55,-0.96 0.43,-0.64 0.65,-1.69 0.65,-3.14 0,-1.45 -0.23,-2.49 -0.69,-3.1 -0.46,-0.61 -1.3,-0.91 -2.51,-0.91 -1.21,0 -2.04,0.3 -2.51,0.91 -0.46,0.61 -0.69,1.64 -0.69,3.1 0,1.46 0.22,2.5 0.65,3.14 z"
     id="path242" />
  <path
     class="cls-1"
     d="m 348.87001,122.23879 c 1.95,0 3.35,0.46 4.21,1.38 0.86,0.92 1.29,2.55 1.29,4.88 0,2.33 -0.51,3.96 -1.53,4.88 -1.02,0.92 -2.82,1.38 -5.38,1.38 -0.89,0 -2.29,-0.07 -4.22,-0.22 l -0.96,-0.07 v -16.97 h 3.06 v 5.45 c 1.3,-0.48 2.48,-0.72 3.54,-0.72 z m -1.42,10.2 c 1.51,0 2.52,-0.3 3.02,-0.9 0.5,-0.6 0.75,-1.62 0.75,-3.06 0,-1.44 -0.21,-2.45 -0.64,-3.04 -0.42,-0.58 -1.12,-0.88 -2.08,-0.88 -0.91,0 -1.81,0.12 -2.72,0.36 l -0.45,0.12 v 7.3 c 1.04,0.06 1.75,0.1 2.12,0.1 z"
     id="path244" />
  <path
     class="cls-1"
     d="m 363.90001,123.79879 c 0.97,-1.04 2.59,-1.56 4.86,-1.56 2.27,0 3.89,0.52 4.86,1.56 0.97,1.04 1.46,2.6 1.46,4.68 0,2.08 -0.47,3.65 -1.42,4.7 -0.95,1.06 -2.58,1.58 -4.9,1.58 -2.32,0 -3.96,-0.53 -4.9,-1.58 -0.94,-1.06 -1.42,-2.62 -1.42,-4.7 0,-2.08 0.49,-3.64 1.46,-4.68 z m 2.31,7.8 c 0.43,0.64 1.28,0.96 2.55,0.96 1.27,0 2.12,-0.32 2.55,-0.96 0.43,-0.64 0.65,-1.69 0.65,-3.14 0,-1.45 -0.23,-2.49 -0.69,-3.1 -0.46,-0.61 -1.3,-0.91 -2.51,-0.91 -1.21,0 -2.04,0.3 -2.51,0.91 -0.46,0.61 -0.69,1.64 -0.69,3.1 0,1.46 0.22,2.5 0.65,3.14 z"
     id="path246" />
  <path
     class="cls-1"
     d="m 391.42001,124.72879 h -3.91 v 5.28 c 0,0.98 0.08,1.62 0.25,1.94 0.17,0.32 0.6,0.48 1.3,0.48 l 2.32,-0.07 0.14,2.09 c -1.27,0.21 -2.23,0.31 -2.89,0.31 -1.61,0 -2.71,-0.31 -3.3,-0.94 -0.59,-0.63 -0.89,-1.8 -0.89,-3.53 v -5.57 h -1.81 v -2.23 h 1.81 v -3.48 h 3.06 v 3.48 h 3.91 v 2.23 z"
     id="path248" />
  <path
     class="cls-1"
     d="m 399.47001,134.49879 v -3.46 h 3.31 v 3.46 z"
     id="path250" />
  <path
     class="cls-1"
     d="m 415.14001,134.49879 h -3.09 v -12 h 3.06 v 0.74 c 1.38,-0.67 2.68,-1.01 3.91,-1.01 1.89,0 3.18,0.45 3.87,1.36 0.69,0.9 1.03,2.4 1.03,4.48 v 6.43 h -3.06 v -6.36 c 0,-1.3 -0.17,-2.22 -0.5,-2.76 -0.33,-0.54 -1.01,-0.82 -2.03,-0.82 -0.96,0 -1.89,0.16 -2.78,0.48 l -0.42,0.14 v 9.31 z"
     id="path252" />
  <path
     class="cls-1"
     d="m 443.27001,132.33879 0.79,-0.07 0.06,1.94 c -2.15,0.37 -4.06,0.55 -5.72,0.55 -2.1,0 -3.6,-0.49 -4.52,-1.46 -0.92,-0.98 -1.37,-2.54 -1.37,-4.68 0,-4.26 2.05,-6.38 6.15,-6.38 4.1,0 5.95,1.83 5.95,5.5 l -0.2,1.87 h -8.78 c 0.02,0.99 0.27,1.72 0.76,2.18 0.49,0.46 1.41,0.7 2.75,0.7 1.34,0 2.72,-0.05 4.14,-0.14 z m -1.7,-4.75 c 0,-1.18 -0.22,-2.01 -0.67,-2.48 -0.44,-0.47 -1.2,-0.71 -2.25,-0.71 -1.05,0 -1.83,0.25 -2.31,0.74 -0.48,0.49 -0.73,1.31 -0.75,2.45 z"
     id="path254" />
  <path
     class="cls-1"
     d="m 460.87001,124.72879 h -3.91 v 5.28 c 0,0.98 0.08,1.62 0.25,1.94 0.17,0.32 0.6,0.48 1.3,0.48 l 2.32,-0.07 0.14,2.09 c -1.27,0.21 -2.23,0.31 -2.89,0.31 -1.61,0 -2.71,-0.31 -3.3,-0.94 -0.59,-0.63 -0.89,-1.8 -0.89,-3.53 v -5.57 h -1.81 v -2.23 h 1.81 v -3.48 h 3.06 v 3.48 h 3.91 v 2.23 z"
     id="path256" />
  <path
     class="cls-3"
     d="m 82.440008,145.05879 c -0.19,-0.06 -0.34,-0.1 -0.39,-0.12 0.04,0.01 0.16,0.05 0.39,0.12 z"
     id="path258" />
  <path
     class="cls-3"
     d="m 83.560008,145.38879 c 0,0 -0.27,-0.08 -0.59,-0.17 0.17,0.05 0.36,0.11 0.59,0.17 z"
     id="path260" />
  <path
     class="cls-3"
     d="m 82.970008,145.21879 c -0.23,-0.07 -0.39,-0.12 -0.53,-0.16 0.16,0.05 0.35,0.1 0.53,0.16 z"
     id="path262" />
  <path
     class="cls-3"
     d="m 82.040008,144.93879 c 0,0 -0.03,0 0,0 z"
     id="path264" />
  <path
     class="cls-3"
     d="M 162.85001,110.90879 V 82.108786 h -16.01 l -4.13,-9.98 11.32,-11.32 -20.37,-20.37 -11.32,11.32 -9.98,-4.13 v -16.01 H 83.560008 v 16.01 l -9.98,4.13 -11.32,-11.32 -20.37,20.37 11.32,11.32 -4.13,9.98 h -16.01 v 28.800004 h 16.01 l 4.13,9.98 -11.32,11.32 20.37,20.37 11.32,-11.32 9.98,4.13 v 16.01 h 28.800002 v -16.01 l 9.98,-4.13 11.32,11.32 20.37,-20.37 -11.32,-11.32 4.13,-9.98 z m -64.890002,18.83 c -18.35,0 -33.23,-14.88 -33.23,-33.230004 0,-18.35 14.88,-33.23 33.23,-33.23 18.350002,0 33.230002,14.88 33.230002,33.23 0,18.350004 -14.88,33.230004 -33.230002,33.230004 z"
     id="path266" />
</svg>
